<?xml version="1.0" encoding="utf-8"?>
<!-- Generator: Adobe Illustrator 26.0.1, SVG Export Plug-In . SVG Version: 6.00 Build 0)  -->
<svg version="1.1" id="Layer_1" xmlns="http://www.w3.org/2000/svg" xmlns:xlink="http://www.w3.org/1999/xlink" x="0px" y="0px"
	 viewBox="0 0 229.8 94.5" style="enable-background:new 0 0 229.8 94.5;" xml:space="preserve">
<style type="text/css">
	.st0{fill:#EC3237;}
	.st1{fill:#FDFBFB;}
</style>
<path class="st0" d="M43,5.1c0.6,0.3,1.1,0.6,1.6,1.1c0.1,0.1,0.3,0.3,0.4,0.4c0.1,0.1,0.3,0.3,0.4,0.4c0.1,0.1,0.3,0.3,0.4,0.4
	c0.8,0.8,1.6,1.6,2.3,2.5c0.6,0.7,1.3,1.3,1.9,2c0.4,0.4,0.8,0.9,1.2,1.3c0.6,0.7,1.2,1.4,1.9,2c0.8,0.8,1.5,1.6,2.2,2.4
	c0.5,0.5,0.9,1,1.4,1.5c0.6,0.6,1.2,1.2,1.8,1.9c0.6,0.7,1.2,1.4,1.9,2c0.8,0.8,1.5,1.6,2.2,2.4c0.6,0.7,1.3,1.3,2,2
	c0.6,0.6,1.1,1.2,1.6,1.8c0.5,0.5,0.9,1,1.4,1.5c0.6,0.6,1.2,1.2,1.8,1.9c0.6,0.7,1.2,1.4,1.9,2c0.8,0.8,1.5,1.6,2.2,2.4
	c0.5,0.5,0.9,1,1.4,1.5c0.6,0.6,1.2,1.2,1.8,1.9c0.7,0.8,1.4,1.6,2.2,2.3c0.7,0.7,1.3,1.4,2,2.1c0.5,0.6,1.1,1.1,1.7,1.7
	c0.3,0.4,0.3,0.4,0.3,0.8c-0.3,0.6-0.8,1-1.3,1.5c-0.7,0.7-1.4,1.3-2,2.1c-0.7,0.9-1.5,1.6-2.3,2.4c-0.4,0.4-0.8,0.9-1.2,1.3
	c-0.7,0.8-1.4,1.6-2.2,2.3c-0.7,0.7-1.3,1.4-1.9,2.1c-0.6,0.7-1.3,1.4-2,2c-0.4,0.4-0.8,0.9-1.2,1.3c-0.7,0.8-1.4,1.6-2.2,2.3
	c-0.7,0.7-1.3,1.4-1.9,2.1c-0.6,0.7-1.3,1.4-2,2c-0.4,0.4-0.8,0.9-1.2,1.3c-0.7,0.8-1.4,1.6-2.2,2.3c-0.7,0.7-1.3,1.4-1.9,2.1
	c-0.6,0.7-1.3,1.4-2,2c-0.4,0.4-0.8,0.9-1.2,1.3c-0.7,0.8-1.4,1.6-2.2,2.3c-0.7,0.7-1.3,1.4-1.9,2.1c-0.6,0.7-1.3,1.3-2,2
	c-0.6,0.6-1.1,1.2-1.6,1.8c-0.6,0.7-1.3,1.4-2,2.1c-0.5,0.5-0.5,0.5-0.9,1.1c-0.8-0.1-1.1-0.4-1.6-1c-0.1-0.2-0.3-0.3-0.4-0.5
	c-0.5-0.6-1-1.1-1.5-1.7c-0.5-0.6-1-1.1-1.6-1.6c-0.8-0.8-1.5-1.6-2.2-2.4c-0.5-0.5-0.9-1-1.4-1.5c-0.6-0.6-1.2-1.2-1.8-1.9
	c-0.6-0.7-1.2-1.4-1.9-2c-0.8-0.8-1.5-1.6-2.2-2.4c-0.6-0.7-1.3-1.3-2-2c-0.6-0.6-1.1-1.2-1.6-1.8c-0.5-0.5-0.9-1-1.4-1.5
	c-0.6-0.6-1.2-1.2-1.8-1.9c-0.6-0.7-1.2-1.4-1.9-2c-0.8-0.8-1.5-1.6-2.2-2.4c-0.5-0.5-0.9-1-1.4-1.5c-0.6-0.6-1.2-1.2-1.8-1.9
	c-0.6-0.7-1.2-1.4-1.9-2c-0.8-0.8-1.5-1.6-2.2-2.4c-0.5-0.5-0.9-1-1.4-1.5c-0.7-0.7-1.4-1.5-2.1-2.3c-0.7-0.8-1.4-1.5-2.2-2.2
	c-0.6-0.7-1.1-1.3-1.6-2.1c0.5-0.6,1-1.1,1.6-1.7c0.1-0.2,0.3-0.3,0.4-0.5c0.9-0.9,1.7-1.8,2.6-2.7c0.4-0.4,0.7-0.8,1.1-1.2
	c0.6-0.7,1.2-1.3,1.8-1.9c0.6-0.6,1.2-1.2,1.8-1.9c0.7-0.8,1.4-1.6,2.2-2.3c0.7-0.7,1.3-1.4,1.9-2.1c0.6-0.7,1.3-1.4,2-2
	c0.4-0.4,0.8-0.9,1.2-1.3c0.7-0.8,1.4-1.6,2.2-2.3c0.7-0.7,1.3-1.4,1.9-2.1c0.6-0.7,1.3-1.4,2-2c0.4-0.4,0.8-0.9,1.2-1.3
	c0.7-0.8,1.4-1.6,2.2-2.3c0.7-0.7,1.3-1.4,1.9-2.1c0.6-0.7,1.3-1.4,2-2c0.4-0.4,0.8-0.9,1.2-1.3c0.7-0.8,1.4-1.6,2.2-2.3
	c0.7-0.7,1.3-1.4,1.9-2.1c0.6-0.7,1.3-1.3,2-2c0.7-0.7,1.3-1.4,2-2.2C42.9,5.2,43,5.2,43,5.1z"/>
<path d="M96.8,24.2c0.5,0.5,0.5,0.9,0.6,1.6c-0.7,3.2-2.6,6.1-4.6,8.6c-0.1,0.1-0.2,0.3-0.3,0.4c-0.6,0.7-1.2,1.2-2,1.7
	c-0.6,0-0.6,0-1,0c0,0.1-0.1,0.3-0.1,0.4c-0.3,1.1-0.6,2.2-1,3.3c-0.3,1-0.5,1.8-0.4,2.8c0.3-0.2,0.5-0.4,0.7-0.5
	c0.1-0.1,0.3-0.2,0.4-0.3c1.3-1.1,2.3-2.3,3.4-3.6c0.1-0.2,0.2-0.3,0.4-0.5c0.8-1,1.5-2.1,2.2-3.2c0.8-1.2,1.9-1.9,3.1-2.5
	c1.4-0.1,2,0,3.1,1c0.2,0.3,0.2,0.3,0.2,0.7c0.1-0.1,0.2-0.2,0.3-0.2c1-0.8,1-0.8,1.8-0.8c0.8,0.4,0.8,0.4,1.1,0.8
	c-0.1,1.2-0.5,2-1.1,3c-1.1,1.9-1.9,3.8-2.7,5.8c1-0.8,1.9-1.7,2.8-2.7c0.1-0.1,0.2-0.3,0.3-0.4c0.2-0.2,0.4-0.5,0.6-0.7
	c0.2-0.3,0.5-0.5,0.7-0.8c0.6-0.9,1-2,1.4-3c0.7-1.7,1.4-3.3,2.3-4.9c-4.9-0.1-4.9-0.1-9.6,0.6c-0.1,0.3-0.1,0.6-0.2,0.8
	c-0.4-0.1-0.4-0.1-0.8-0.4c-0.3-0.7-0.3-0.9,0-1.6c0.5-0.6,0.8-0.7,1.4-0.9c0.5-0.1,0.5-0.1,1.1,0c0.3,0,0.3,0,0.6,0
	c0.3,0,0.3,0,0.7,0c0.2,0,0.5,0,0.7,0c1.2,0,2.3,0,3.5,0.1c0.2,0,0.4,0,0.6,0c0.4,0,0.8,0.1,1.1,0.2c0.6,0.1,1,0.1,1.5-0.1
	c0.7-0.7,1.2-1.5,1.7-2.3c0.3-0.4,0.6-0.7,0.8-1.1c0.1-0.2,0.2-0.3,0.4-0.5c0.1-0.1,0.2-0.2,0.3-0.3c0.7,0.1,0.7,0.1,1.5,0.2
	c0.4,0.6,0.4,0.6,0.4,1.1c-0.2,0.8-0.6,1.4-1,2.1c-0.1,0.2-0.1,0.2-0.2,0.4c-0.2,0.3-0.4,0.7-0.6,1c0.2,0,0.4,0,0.6,0
	c0.4,0,0.4,0,0.8,0.1c0.3,0,0.5,0,0.8,0.1c0.7,0.1,0.7,0.1,1.3,0.3c0-0.3,0-0.3,0.1-0.6c0.1-0.7,0.2-0.9,0.8-1.3
	c0.9-0.3,1.6-0.3,2.5-0.2c0.7,0.5,1,0.8,1.2,1.7c0,0.2,0.1,0.4,0.1,0.6c0.5-0.1,1-0.2,1.5-0.3c0.1,0,0.3-0.1,0.4-0.1
	c0.9-0.2,0.9-0.2,1.6-0.7c0.7,0.1,0.7,0.1,1,0.4c0.1,0.7,0.1,1.1-0.3,1.7c-1.4,0.9-3.2,0.5-4.7,0.4c-0.7-0.1-0.7-0.1-1.3,0.4
	c-1.2,0.1-1.2,0.1-1.7,0c-0.1-0.1-0.3-0.3-0.4-0.4c-0.9-0.6-1.8-0.7-2.9-0.8c-0.2,0-0.4-0.1-0.6-0.1c-0.5-0.1-1-0.1-1.5-0.2
	c-1.3,2.3-2.4,4.5-3.4,6.9c-0.1,0.2-0.2,0.4-0.2,0.6c-0.7,1.9-1.3,3.7-1.4,5.7c2-1.2,3.4-3,4.8-4.8c0.1-0.1,0.2-0.3,0.4-0.4
	c0.6-0.8,1.1-1.5,1.5-2.4c1.5-2.9,1.5-2.9,2.6-3.2c0.5,0,0.5,0,1.1,0.2c0.5,0.4,0.5,0.4,0.6,1c0,1.2-0.7,2.2-1.3,3.2
	c-0.9,1.7-1.8,3.4-2.4,5.2c0.1,0.1,0.1,0.1,0.2,0.2c1.5-1.4,2.8-3,4-4.6c0.1-0.1,0.2-0.2,0.3-0.4c0.7-0.9,1.2-1.9,1.7-2.9
	c0.8-1.6,0.8-1.6,1-1.8c0.5,0.1,1,0.1,1.5,0.2c0,0.1,0,0.3,0,0.4c0.1,0,0.3,0,0.4,0c0.3,0.9,0.1,1.4-0.2,2.3
	c0.1-0.2,0.3-0.3,0.4-0.5c2.4-2.5,2.4-2.5,4.2-2.8c0.7,0.1,1.1,0.3,1.6,0.7c0.3,0.7,0.3,1.1,0,1.8c-0.3,0.6-0.6,1.2-1,1.8
	c-1.1,2-1.9,3.9-2.6,6.1c1.4-1.3,2.6-2.8,3.7-4.3c0.2-0.3,0.4-0.5,0.6-0.8c0.6-0.8,1.1-1.6,1.5-2.5c1.1-2.2,1.1-2.2,1.9-2.9
	c0.8-0.2,1.2-0.1,2,0.2c0.5,0.6,0.4,0.9,0.3,1.7c-0.2,0.6-0.2,0.6-0.6,1.2c-0.1,0.2-0.2,0.4-0.4,0.7c-0.2,0.3-0.2,0.3-0.4,0.7
	c-1.7,2.8-1.7,2.8-2.5,5.8c0.2-0.2,0.5-0.4,0.7-0.5c0.1-0.1,0.3-0.2,0.4-0.3c0.2-0.1,0.4-0.3,0.5-0.4c0.1-0.1,0.3-0.2,0.4-0.3
	c1.2-0.9,1.6-1.8,2.1-3.2c0.7-2,1.6-4.3,3.4-5.7c0.8,0.1,0.8,0.1,1.5,0.2c0,0.1,0,0.3,0,0.4c0.1,0,0.3,0,0.4,0c0.2,0.6,0.2,1,0,1.6
	c-0.1,0.2-0.2,0.4-0.3,0.6c-0.1,0.2-0.2,0.4-0.4,0.7c-0.1,0.2-0.3,0.5-0.4,0.7c-1,1.8-1.8,3.5-2.5,5.4c0.1,0.1,0.1,0.1,0.2,0.2
	c2.2-2,4-4.4,5.4-7c0.1-0.1,0.1-0.2,0.2-0.4c0.2-0.4,0.4-0.7,0.6-1.1c0.3-0.6,0.3-0.6,1-1c0.7,0,1.2,0.1,1.8,0.6
	c0.3,0.5,0.3,0.5,0.3,1.1c-0.1,0.2-0.1,0.4-0.2,0.6c0,0.1,0,0.3,0,0.4c0.3-0.3,0.3-0.3,0.5-0.6c0.8-0.9,1.6-1.7,2.6-2.3
	c0.8,0,1.1,0,1.7,0.6c0.3,0.7,0.2,1.1,0,1.7c0,0.1,0,0.3,0,0.4c0.1-0.1,0.3-0.3,0.4-0.4c0.2-0.2,0.4-0.3,0.6-0.5
	c0.2-0.2,0.4-0.3,0.5-0.5c1.2-1,2-1.2,3.5-1.1c0.1,0.1,0.3,0.1,0.4,0.2c0,0.1,0,0.3,0,0.4c0.1,0,0.3,0,0.4,0
	c0.2,0.8,0.3,1.2-0.1,1.9c-0.1,0.2-0.3,0.5-0.4,0.7c-1.3,2.2-2.4,4.5-3,7c1.5-1.6,2.8-3.2,4.1-4.9c0.5-0.6,0.5-0.6,0.9-1
	c0.4,0.1,0.4,0.1,0.8,0.2c-0.7,1.4-1.5,2.6-2.5,3.8c-0.1,0.2-0.2,0.3-0.4,0.5c-0.6,0.8-1.2,1.6-1.9,2.3c-0.2,0.2-0.2,0.2-0.3,0.4
	c-0.4,0.4-0.7,0.6-1.2,0.8c-0.7,0-1.1-0.1-1.6-0.5c-0.7-0.9-0.6-2-0.5-3.1c0.4-1.8,0.9-3.5,1.7-5.2c-1.4,1.6-2.8,3.3-4,5.1
	c-0.4,0.6-0.4,0.6-0.6,0.8c-1.1,0.1-1.1,0.1-1.6-0.3c-0.5-0.7-0.4-1.6-0.3-2.5c0.2-0.7,0.5-1.4,0.8-2.1c-2,2.1-3.6,4.6-5.2,7
	c-0.2,0.3-0.2,0.3-0.6,0.7c-1.4-0.1-1.4-0.1-1.7-0.4c0-0.3,0-0.6,0-0.9c0-0.2,0-0.3,0-0.5c0-0.5,0.1-1,0.2-1.6
	c-0.2,0.2-0.3,0.4-0.5,0.5c-0.2,0.2-0.4,0.5-0.6,0.7c-0.1,0.1-0.2,0.2-0.3,0.4c-1,1.1-1,1.1-1.9,1.2c-0.5,0-0.8,0-1.3-0.3
	c-0.4-0.7-0.5-1.4-0.7-2.1c-0.1,0.1-0.2,0.2-0.3,0.3c-1,1.1-1.9,1.9-3.5,2.1c-0.8-0.1-0.8-0.1-1.4-0.5c-0.6-1-0.6-2-0.6-3.2
	c-0.1,0.2-0.3,0.4-0.5,0.6c-2.2,2.9-2.2,2.9-3.3,3.6c-0.8,0-1.2,0-1.9-0.5c-0.6-0.9-0.5-2-0.4-3.1c0.1-0.4,0.2-0.8,0.3-1.2
	c0.1-0.2,0.1-0.2,0.1-0.4c0.3-1.1,0.6-2.1,1-3.1c-2,2.2-3.7,4.6-5.2,7.1c-0.6,1-0.6,1-1.1,1.3c-0.7,0.1-1.1,0.1-1.7-0.3
	c-0.3-0.7-0.1-1.2,0.1-2c0.1-0.4,0.1-0.4,0.1-0.8c-0.3,0.3-0.3,0.3-0.5,0.6c-0.2,0.3-0.5,0.5-0.7,0.8c-0.2,0.2-0.2,0.2-0.4,0.4
	c-0.2,0.2-0.2,0.2-0.3,0.4c-0.1,0.1-0.2,0.2-0.3,0.3c-0.5,0.6-0.9,0.5-1.7,0.6c-0.7-0.1-0.9-0.4-1.3-0.9c-0.1-0.6-0.1-1.2-0.1-1.8
	c0-0.2,0-0.3,0-0.5c0-0.4,0-0.8,0-1.2c-0.1,0.1-0.2,0.2-0.2,0.3c-0.4,0.4-0.7,0.8-1.1,1.2c-0.2,0.2-0.2,0.2-0.4,0.4
	c-1.8,2.1-1.8,2.1-3.1,2.5c-0.8,0-1.1-0.1-1.8-0.6c-0.4-0.9-0.5-1.6-0.6-2.6c0-0.4,0-0.4,0-0.8c0-0.2,0-0.4,0-0.6
	c-0.1,0.2-0.3,0.4-0.5,0.5c-0.5,0.6-1,1.2-1.6,1.8c-0.2,0.3-0.5,0.6-0.7,0.8c-0.5,0.6-0.8,0.9-1.5,1.1c-0.5,0-0.9,0-1.4-0.1
	c-0.7-0.6-0.7-1.2-0.8-2.1c0-0.2,0-0.5,0-0.7c0-0.2,0-0.3,0-0.5c-0.1,0.2-0.2,0.3-0.4,0.5c-0.2,0.2-0.3,0.5-0.5,0.7
	c-0.1,0.1-0.2,0.2-0.2,0.3c-0.6,0.9-1.3,1.6-2.3,2c-0.8,0-1.3-0.2-1.9-0.6c-0.8-1.1-0.7-2.3-0.7-3.5c-0.1,0.1-0.2,0.2-0.2,0.3
	c-0.4,0.4-0.8,0.8-1.1,1.2c-0.1,0.1-0.3,0.3-0.4,0.4c-1.8,1.9-1.8,1.9-3.2,2.1c-0.9-0.1-1.2-0.5-1.8-1.2c-0.5-1.6-0.2-3.2,0.2-4.8
	c0.1-0.3,0.1-0.3,0.1-0.6c1.2-4.8,3.6-10.9,7.8-13.9C94.8,23.6,95.7,23.7,96.8,24.2z M94.8,26.4c-1.8,1.8-2.8,4.2-3.9,6.4
	c-0.1,0.2-0.2,0.4-0.3,0.6c-0.1,0.2-0.2,0.4-0.3,0.5c-0.1,0.2-0.1,0.2-0.2,0.5c0,0.1-0.1,0.3-0.1,0.4c0.1,0.1,0.1,0.3,0.2,0.4
	c2.6-2.7,4.8-5.7,5.4-9.4C95.3,25.8,95.3,25.8,94.8,26.4z M119.1,29.4c-0.2,0.2-0.4,0.4-0.6,0.6c0.3-0.1,0.6-0.1,0.8-0.2
	C119.2,29.7,119.2,29.6,119.1,29.4z M99.8,34.7c-2.3,1.2-3.7,3.7-4.6,6.1c-0.1,0.5-0.2,1-0.2,1.5c1.1-0.8,1.8-1.7,2.6-2.7
	c0.6-0.8,1.3-1.5,2-2.3c0.4-0.5,0.4-0.5,0.8-1.1c0-0.7,0-0.7-0.2-1.3C100.1,34.8,100,34.7,99.8,34.7z M105.1,39.7
	c0.2,0.4,0.2,0.4,0.2,0.4L105.1,39.7z M112.2,39.9c0.2,0.4,0.2,0.4,0.2,0.4L112.2,39.9z M117.6,40.9c0.2,0.4,0.2,0.4,0.2,0.4
	L117.6,40.9z M140.9,41.1c0.2,0.4,0.2,0.4,0.2,0.4L140.9,41.1z"/>
<path class="st1" d="M64,33.2c0.1,0.1,0.3,0.2,0.4,0.3c1.6,1.2,2.8,3.2,3.3,5.2c0.2,3.4-0.5,5.7-2.6,8.4c-0.1,0.1-0.2,0.2-0.3,0.3
	c-0.1,0-0.3,0-0.4,0c0,0.1-0.1,0.2-0.1,0.4c-2.2,3.7-9.7,5.3-13.4,6.3c-2.9,0.7-5.7,1.2-8.6,1.7c0,0.2,0,0.5-0.1,0.7
	c-0.1,0.9-0.2,1.8-0.2,2.7c0,0.4-0.1,0.8-0.1,1.2c-0.2,2-0.4,4-0.8,6c0,0.1-0.1,0.3-0.1,0.4c-0.2,1.1-0.7,2-1.2,2.9
	c-0.3,0-0.6,0-0.8,0c-0.5-0.7-0.8-1.4-1-2.3c-0.1-0.2-0.1-0.4-0.2-0.6c-0.3-1.5-0.4-2.9-0.4-4.4c0-0.2,0-0.4,0-0.6
	c0-0.6,0-1.2,0-1.7c0-0.4,0-0.8,0-1.2c0-1,0-1.9,0-2.9c-0.2,0-0.2,0-0.4,0.1c-1.9,0.4-3.7,0.5-5.6,0.7c-0.6,0.1-1.1,0.1-1.7,0.2
	C21,58,21,58,18.9,57.1c0-0.5,0-0.5,0.2-1c1.2-0.7,2.5-1,3.8-1.3c0.2,0,0.4-0.1,0.6-0.1c2.3-0.4,4.7-0.6,7-0.8
	c1.7-0.2,3.3-0.4,5-0.6c0.2,0,0.2,0,0.5-0.1c0.4-0.1,0.8-0.2,1.2-0.2c0.3-0.6,0.3-1.3,0.3-2c0-0.3,0.1-0.7,0.1-1
	c0-0.5,0.1-1,0.1-1.5c0.1-1.8,0.3-3.6,0.6-5.4c0-0.2,0-0.2,0.1-0.4c0.2-0.9,0.4-1.9,1.1-2.6c1.5-0.1,1.5-0.1,2.3,0.3
	c1.7,1.8,1.4,4.3,1.3,6.6c-0.1,1.8-0.5,3.5-0.9,5.2c9.5-1.7,9.5-1.7,18.1-6c0.4-0.3,0.4-0.3,0.8-0.5c0.5-0.3,0.6-0.5,0.8-1
	c0.2-0.2,0.2-0.2,0.4-0.5c0.9-1.3,1.3-2.8,1.1-4.4c-0.5-1.7-1.9-2.8-3.4-3.7c-4-2.1-9-3-13.5-3c-0.2,0-0.4,0-0.5,0
	c-0.4,0-0.8,0-1.1,0c-0.6,0-1.1,0-1.7,0c-3.1,0-6,0.3-9.1,1C33.8,34,33.8,34,33.5,34c-2.7,0.6-5.3,1.6-8,2.5
	c-0.4,0.2-0.9,0.3-1.3,0.5c-0.4,0.2-0.8,0.3-1.2,0.5c-2,0.7-2,0.7-3.1,0.7c-0.2,0-0.4,0-0.5,0c-0.5-0.1-0.5-0.1-0.9-0.5
	c0-1.1,0.5-1.7,1.2-2.5c4.5-4.1,10.8-6.1,16.7-7.1c0.5-0.1,0.9-0.2,1.4-0.2C46,26.6,57.3,27.9,64,33.2z"/>
<path d="M197.1,32.3c0.7,0.4,1.3,0.8,1.9,1.5c0.2-0.2,0.2-0.2,0.4-0.4C200,33,200,33,200.7,33c0.2,0.1,0.4,0.1,0.6,0.2
	c0,0.1,0,0.3,0,0.4c0.1,0,0.3,0,0.4,0c0.2,0.5,0.3,0.9,0.1,1.4c-0.3,0.5-0.5,0.9-0.8,1.4c-0.7,1.3-1.4,2.5-2,3.9
	c-0.1,0.1-0.1,0.3-0.2,0.4c-0.3,0.6-0.4,1-0.4,1.7c1.4-1.4,2.7-2.8,4-4.4c0.1-0.2,0.3-0.3,0.4-0.5c0.6-0.8,0.9-1.7,1.3-2.6
	c0.1-0.4,0.3-0.7,0.4-1.1c0.1-0.2,0.1-0.3,0.2-0.5c0.2-0.5,0.4-0.7,0.8-1c0.8-0.1,1.2-0.1,1.9,0.3c0.4,0.5,0.4,0.5,0.5,1.2
	c0,0.2,0,0.4-0.1,0.6c0,0.1,0,0.3,0,0.4c0.1-0.2,0.1-0.2,0.3-0.4c0.1-0.2,0.3-0.3,0.4-0.5c0.1-0.2,0.3-0.3,0.4-0.5
	c0.6-0.7,1-1.1,1.8-1.2c0.8,0.1,1.3,0.4,1.9,0.9c0.8,1.5,0.5,3.3,0,4.8c-0.9,2.6-2.4,5.2-5,6.5c-1.2,0.3-1.9,0.2-2.9-0.4
	c-0.3-0.2-0.6-0.4-0.8-0.6c-1.4,3.1-2.8,6.1-4.2,9.2c0.1,0,0.3,0.1,0.4,0.1c0.6,0.4,0.8,0.8,1.1,1.5c0.1,0.7,0.1,0.7,0.1,1.5
	c0,0.1,0,0.3,0,0.4c0,0.5,0,1,0,1.4c0,0.3,0,0.7,0,1c0,0.7,0,1.4,0,2.1c0,0.9,0,1.8,0,2.7c0,0.7,0,1.4,0,2.1c0,0.3,0,0.7,0,1
	c0,0.5,0,0.9,0,1.4c0,0.3,0,0.5,0,0.8c-0.2,1.1-0.7,1.7-1.5,2.4c-2,1.1-4.3,1-6.4,0.4c-1-0.4-1.6-1.2-2.1-2.1c0-0.5,0-0.9,0-1.4
	c0-0.1,0-0.3,0-0.4c0-0.5,0-0.9,0-1.4c0-0.3,0-0.7,0-1c0-0.7,0-1.4,0-2.1c0-0.9,0-1.8,0-2.7c0-0.7,0-1.4,0-2c0-0.3,0-0.7,0-1
	c0-0.5,0-0.9,0-1.4c0-0.4,0-0.4,0-0.8c0.1-1.1,0.5-1.8,1.3-2.5c1.2-0.8,2.2-0.9,3.6-1c0.2,0,0.5,0,0.7-0.1c0.2,0,0.4,0,0.6,0
	c0-0.1,0.1-0.3,0.1-0.4c1.2-3.4,2.5-6.7,3.8-10.1c-0.2,0.2-0.3,0.4-0.5,0.6c-0.2,0.2-0.4,0.5-0.6,0.7c-0.1,0.1-0.2,0.2-0.3,0.4
	c-1.3,1.6-1.3,1.6-2.2,1.7c-1.2,0-1.2,0-1.7-0.4c-0.5-0.7-0.5-1.2-0.4-2c0-0.2,0-0.5,0-0.7c0-0.2,0-0.4,0-0.5
	c-0.1,0.2-0.2,0.3-0.4,0.5c-0.2,0.2-0.3,0.5-0.5,0.7c-0.2,0.2-0.3,0.4-0.5,0.7c-1.2,1.6-1.2,1.6-2.1,1.9c-0.8,0-1.3-0.2-2-0.6
	c-0.9-1.1-0.8-2.4-0.6-3.8c0.6-2.9,2.2-5.7,4.7-7.5C195.1,32.3,196,32.2,197.1,32.3z M194.8,36.4c-1.5,1.6-2.5,3.8-2.8,6
	c1.7-1.7,3.3-3.5,4.8-5.4c0.1-0.1,0.2-0.3,0.4-0.4c0.4-0.6,0.2-1.2,0-1.9C196.3,34.7,195.5,35.8,194.8,36.4z M210.3,34.7
	c-1.3,1.4-2.6,2.8-3.8,4.3c-0.4,0.5-0.8,0.9-1.2,1.3c-0.6,0.6-0.6,0.6-0.5,1.2c0.2,0.5,0.2,0.5,0.6,0.9c2.3-1.4,3.6-3.6,4.6-6.1
	c0.1-0.2,0.2-0.4,0.2-0.6C210.5,35.3,210.5,35.3,210.3,34.7z M195.6,54.8c0,4.6,0,9.3,0,14c0.3,0.1,0.6,0.1,0.8,0.2
	c0.5-0.4,0.5-0.4,0.5-1c0-0.2,0-0.5,0-0.7c0-0.3,0-0.5,0-0.8c0-0.3,0-0.6,0-0.9c0-0.3,0-0.6,0-0.9c0-0.6,0-1.3,0-1.9
	c0-0.8,0-1.6,0-2.5c0-0.6,0-1.3,0-1.9c0-0.3,0-0.6,0-0.9c0-0.4,0-0.8,0-1.3c0-0.2,0-0.5,0-0.7c0-0.5,0-0.5-0.2-0.7
	C196.3,54.8,195.9,54.8,195.6,54.8z"/>
<path d="M179.5,52c7.8,0,7.8,0,9.2,1.1c0.9,1.1,0.9,2.1,0.9,3.5c0,0.2,0,0.3,0,0.5c0,1-0.1,1.8-0.7,2.7c-0.5,0.4-0.9,0.8-1.5,1
	c0.2,0.1,0.4,0.2,0.6,0.4c0.8,0.6,1.2,1,1.5,1.9c0,0.5,0,1,0.1,1.5c0,0.3,0,0.6,0,0.9c0,0.5,0,0.9,0,1.4c0,0.4,0,0.9,0,1.3
	c0,0.3,0,0.5,0,0.8c0.1,1,0.1,1,0.5,2.7c-1.5,0-2.9,0-4.4,0c-0.6-1.2-0.7-2.4-0.7-3.7c0-0.2,0-0.3,0-0.5c0-0.5,0-1,0-1.4
	c0-0.3,0-0.7,0-1c0-0.8,0-1.6-0.1-2.4c-0.3-0.1-0.6-0.3-0.8-0.4c0,3.1,0,6.2,0,9.4c-1.5,0-3,0-4.6,0C179.5,65.2,179.5,58.7,179.5,52
	z M184.1,54.8c0,1.7,0,3.3,0,5c0.3-0.1,0.7-0.3,1-0.4c0-0.7,0-1.4,0-2.1c0-0.2,0-0.4,0-0.6c0-0.2,0-0.4,0-0.6c0-0.3,0-0.3,0-0.5
	c0-0.5,0-0.5-0.5-0.9C184.5,54.8,184.3,54.8,184.1,54.8z"/>
<path d="M202.3,52c1.5,0,3,0,4.6,0c0.1,5.5,0.1,11.1,0.2,16.8c0.3,0,0.7,0,1,0c0-5.5,0-11.1,0-16.8c1.5,0,2.9,0,4.4,0
	c0,2.2,0,4.4,0,6.6c0,1,0,2.1,0,3.1c0,1,0,2,0,3c0,0.4,0,0.8,0,1.1c0,0.5,0,1.1,0,1.6c0,0.2,0,0.2,0,0.5c0,1.2-0.3,1.8-0.9,2.7
	c-1,0.7-2.1,1.2-3.4,1.3c-0.3,0-0.5,0-0.8,0.1c-1.7,0-3.3-0.4-4.6-1.5c-0.7-1.1-0.8-2.5-0.7-3.8c0-0.2,0-0.3,0-0.5c0-0.5,0-1,0-1.6
	c0-0.4,0-0.7,0-1.1c0-1,0-1.9,0-2.9c0-1,0-1.9,0-2.9C202.3,55.9,202.3,54,202.3,52z"/>
<path d="M152,52c6.7,0,6.7,0,8.8,0.8c1.1,1.1,1.1,2.2,1.1,3.7c0,0.2,0,0.4,0,0.6c0,1.3-0.2,2-0.9,3.1c-0.6,0.4-0.6,0.4-1,0.6
	c0.1,0.1,0.2,0.2,0.3,0.2c0.1,0.1,0.3,0.2,0.4,0.3c0.1,0.1,0.3,0.2,0.4,0.3c0.8,0.8,0.8,1.5,0.9,2.6c0,0.1,0,0.3,0,0.4
	c0,0.4,0,0.9,0,1.3c0,1.9,0.1,3.8,0.5,5.6c-1.5,0-2.9,0-4.4,0c-0.6-1.4-0.7-2.6-0.6-4.1c0-0.1,0-0.3,0-0.4c0-0.5,0-0.9,0-1.4
	c0-0.3,0-0.6,0-0.9c0-0.8,0-1.5,0-2.3c-0.3-0.1-0.7-0.1-1-0.2c0,3.1,0,6.2,0,9.4c-1.5,0-2.9,0-4.4,0C152,65.2,152,58.7,152,52z
	 M156.4,54.8c0,1.7,0,3.3,0,5c0.3-0.1,0.7-0.3,1-0.4c0-0.7,0-1.4,0-2.1c0-0.2,0-0.4,0-0.6c0-0.2,0-0.4,0-0.6c0-0.3,0-0.3,0-0.5
	c0-0.5,0-0.5-0.5-0.9C156.8,54.8,156.6,54.8,156.4,54.8z"/>
<path d="M86.8,52c7.9,0,7.9,0,9.4,1.5c0.9,1.4,0.9,3.7,0.5,5.3c-0.4,1-1.1,1.6-2,2c0.2,0.1,0.5,0.3,0.7,0.4c0.7,0.4,1,1,1.3,1.8
	c0.2,0.9,0.2,1.7,0.1,2.6c0,2.1,0.1,4,0.6,6.1c-0.7,0-1.4,0-2.2,0c-0.2,0-0.4,0-0.6,0c-0.2,0-0.4,0-0.6,0c-0.2,0-0.4,0-0.6,0
	c-0.1,0-0.3,0-0.5-0.1c-0.7-1.1-0.7-2.1-0.7-3.4c0-0.2,0-0.3,0-0.5c0-0.5,0-1,0-1.5c0-0.3,0-0.7,0-1c0-0.9,0-1.7-0.1-2.6
	c-0.3-0.1-0.7-0.3-1-0.4c0,3.1,0,6.2,0,9.4c-1.5,0-2.9,0-4.4,0C86.8,65.2,86.8,58.7,86.8,52z M91.2,54.8c0,1.7,0,3.3,0,5
	c0.8-0.1,0.8-0.1,1.3-0.6c0.1-0.4,0.1-0.4,0.1-0.9c0-0.3,0-0.3,0-0.5c0-0.2,0-0.4,0-0.6c0-0.2,0-0.4,0-0.6c0-0.2,0-0.4,0-0.5
	c0-0.2,0-0.3,0-0.5c0-0.5,0-0.5-0.5-0.8C91.8,54.8,91.5,54.8,91.2,54.8z"/>
<path d="M149.1,52.5c0.9,0.8,1.4,1.4,1.5,2.5c0,0.3,0,0.5,0,0.8c0,0.1,0,0.3,0,0.4c0,0.5,0,0.9,0,1.4c0,0.3,0,0.7,0,1
	c0,0.7,0,1.4,0,2.1c0,0.9,0,1.8,0,2.6c0,0.7,0,1.4,0,2c0,0.3,0,0.7,0,1c0,0.5,0,0.9,0,1.4c0,0.3,0,0.5,0,0.8c-0.1,1-0.5,1.7-1.1,2.4
	c-1.9,1.1-4,1.2-6.1,0.8c-1.4-0.4-1.9-0.9-2.7-2.1c-0.1-0.6-0.1-0.6-0.1-1.5c0-0.1,0-0.3,0-0.4c0-0.5,0-1,0-1.5c0-0.3,0-0.7,0-1
	c0-0.7,0-1.4,0-2.1c0-0.9,0-1.8,0-2.7c0-0.7,0-1.4,0-2.1c0-0.3,0-0.7,0-1c0-0.5,0-0.9,0-1.4c0-0.3,0-0.5,0-0.8
	c0.1-1,0.5-1.9,1.3-2.5C144,51.5,147,51.3,149.1,52.5z M145.1,54.8c-0.4,0.4-0.2,1-0.2,1.5c0,0.3,0,0.5,0,0.8c0,0.3,0,0.6,0,0.9
	c0,0.3,0,0.6,0,0.9c0,0.6,0,1.3,0,1.9c0,0.8,0,1.6,0,2.5c0,0.6,0,1.3,0,1.9c0,0.3,0,0.6,0,0.9c0,0.4,0,0.8,0,1.3c0,0.2,0,0.5,0,0.7
	c0,0.6,0,0.6,0.5,1c0.4-0.1,0.4-0.1,0.8-0.2c0-4.6,0-9.3,0-14C145.8,54.8,145.4,54.8,145.1,54.8z"/>
<path d="M111.1,52c1.9,0,3.7,0,5.7,0c0.4,2.3,0.8,4.5,1.1,6.8c0.2,1,0.4,2.1,0.5,3.1c0.2,1,0.3,2,0.5,3c0.1,0.4,0.1,0.8,0.2,1.2
	c0.1,0.5,0.2,1.1,0.3,1.6c0,0.2,0.1,0.3,0.1,0.5c0.2,1.2,0.3,2.3,0.4,3.5c-1.5,0-2.9,0-4.4,0c-0.1-0.6-0.2-1.1-0.3-1.7
	c0-0.2-0.1-0.3-0.1-0.5c-0.2-1-0.2-2-0.2-3c-0.6,0-1.2,0-1.9,0c0,0.4,0,0.4-0.1,0.8c0,0.3-0.1,0.7-0.1,1c0,0.2,0,0.3-0.1,0.5
	c0,0.2,0,0.3-0.1,0.5c0,0.2,0,0.3,0,0.5c-0.1,0.7-0.2,1.3-0.3,2c-1.5,0-2.9,0-4.4,0c0.1-2.2,0.5-4.4,0.8-6.6
	c0.1-0.4,0.1-0.7,0.2-1.1c0.1-0.8,0.3-1.5,0.4-2.3c0.2-1,0.3-2,0.5-2.9c0.1-0.8,0.2-1.5,0.4-2.3c0.1-0.4,0.1-0.7,0.2-1.1
	c0.1-0.5,0.2-1,0.2-1.5c0-0.1,0-0.3,0.1-0.5C110.9,52.5,110.9,52.5,111.1,52z M113.9,59.2c-0.1,0.5-0.1,1-0.2,1.5
	c0,0.1,0,0.3-0.1,0.4c-0.1,0.8-0.2,1.6-0.1,2.5c0.3,0,0.7,0,1,0c-0.1-1.5-0.3-2.9-0.4-4.4C114,59.2,113.9,59.2,113.9,59.2z"/>
<path d="M173.6,51.8c0.2,0,0.2,0,0.4,0c1.2,0,2.3,0.1,3.2,1c0.8,0.9,1,1.6,1,2.7c0,0.2,0,0.4,0,0.7c0,0.3,0,0.3,0,0.7
	c0,0.2,0,0.5,0,0.7c0,0.6,0,1.1,0,1.7c-1.3,0-2.6,0-4,0c-0.1-2.1-0.1-2.1-0.2-4.2c-0.3,0-0.6,0-0.8,0c0,4.6,0,9.3,0,14
	c0.4-0.1,0.4-0.1,0.8-0.2c0.1-1.2,0.1-2.5,0.2-3.8c-0.3,0-0.7,0-1,0c0-1,0-2.1,0-3.1c1.7,0,3.3,0,5,0c0,3.3,0,6.5,0,9.8
	c-0.8,0-1.5,0-2.3,0c-0.2-0.3-0.4-0.6-0.6-0.8c-0.2,0.2-0.2,0.2-0.5,0.4c-1,0.7-2.2,0.8-3.4,0.5c-0.9-0.3-1.7-0.6-2.4-1.4
	c-0.4-0.9-0.5-1.7-0.5-2.7c0-0.1,0-0.3,0-0.4c0-0.5,0-0.9,0-1.4c0-0.3,0-0.6,0-1c0-0.7,0-1.3,0-2c0-0.9,0-1.7,0-2.6c0-0.7,0-1.3,0-2
	c0-0.3,0-0.6,0-0.9c0-0.4,0-0.9,0-1.3c0-0.2,0-0.5,0-0.8c0.1-1.1,0.5-1.9,1.3-2.8C171,51.9,172.2,51.8,173.6,51.8z"/>
<path d="M189.1,18.5c1,1,1.2,1.8,1.3,3.1c-0.1,2.7-1.6,4.9-3.4,6.6c-0.8,0.6-1.3,0.9-2.3,0.9c-0.6-0.2-0.6-0.2-1-0.6
	c0-0.4,0-0.4,0.2-0.8c0.4-0.3,0.4-0.3,0.9-0.6c1.5-1,2.4-2.4,3.1-4c0.1-0.2,0.2-0.4,0.3-0.6c0.2-0.9,0.2-1.7-0.1-2.5
	c-0.4-0.5-0.4-0.5-1-0.6c-3.5,0.1-6.5,2.8-8.7,5.1c-4.4,4.9-8.3,12-8.1,18.7c0.2,1.9,0.6,3.5,1.9,4.8c1.5,1.1,3.7,1.2,5.5,0.9
	c3-0.6,5.4-2.1,7.1-4.7c0.9-1.5,0.9-3.1,0.8-4.8c1.4-0.1,1.4-0.1,1.8,0.3c0.4,0.5,0.4,1,0.4,1.7c-0.4,2.7-2.3,5-4.5,6.6
	c-2.9,1.9-6.6,2.8-10,2.1c-1.8-0.5-3.3-1.4-4.3-3c-2-3.8-1.2-8.3,0-12.2c1.1-3.1,2.6-6.3,4.6-9c0.1-0.2,0.1-0.2,0.3-0.4
	C177,21.5,183.3,14.7,189.1,18.5z"/>
<path d="M213.8,52c6.9,0,6.9,0,9.2,0.8c1.2,1.4,1,3.1,0.9,4.9c0,0.5,0,1,0,1.5c0,0.3,0,0.6,0,1c0,0.1,0,0.3,0,0.4
	c0,1.3-0.3,2.2-1.1,3.2c-1.4,0.8-3,0.8-4.6,0.8c0,2.4,0,4.7,0,7.1c-1.5,0-2.9,0-4.4,0C213.8,65.2,213.8,58.7,213.8,52z M218.2,55
	c0,2.2,0,4.4,0,6.7c0.3-0.1,0.7-0.1,1-0.2c0.5-0.9,0.2-2.2,0.2-3.2c0-0.3,0-0.5,0-0.8c0-0.3,0-0.5,0-0.8c0-0.3,0-0.3,0-0.7
	c0-0.6,0-0.6-0.5-1C218.8,55,218.5,55,218.2,55z"/>
<path d="M98.6,52c2.8,0,5.5,0,8.4,0c0,0.9,0,1.8,0,2.7c-1.3,0-2.6,0-4,0c0,1.7,0,3.3,0,5c1.2,0,2.4,0,3.6,0c0,0.8,0,1.7,0,2.5
	c-1.2,0-2.4,0-3.6,0c0,2.2,0,4.4,0,6.7c1.4,0,2.8,0,4.2,0c0,0.9,0,1.8,0,2.7c-2.8,0-5.7,0-8.6,0C98.6,65.2,98.6,58.7,98.6,52z"/>
<path d="M130.2,52c3,0,6.1,0,9.2,0c0,0.9,0,1.8,0,2.7c-0.8,0-1.5,0-2.3,0c0,5.6,0,11.2,0,17c-1.5,0-3,0-4.6,0c0-5.6,0-11.2,0-17
	c-0.8,0-1.5,0-2.3,0C130.2,53.9,130.2,53,130.2,52z"/>
<path d="M121,52c1.5,0,3,0,4.6,0c0,5.6,0,11.2,0,17c1.2,0,2.4,0,3.6,0c0,0.9,0,1.8,0,2.7c-2.7,0-5.4,0-8.2,0
	C121,65.2,121,58.7,121,52z"/>
<path d="M222.5,32.8c0.7,0.5,1.1,1,1.3,1.8c0.2,1.6-0.4,2.8-1.3,4.2c-0.9,1.1-2,1.6-3.4,1.9c-0.9,0.1-1.7,0.1-2.5-0.2
	c0.1,0.3,0.1,0.7,0.2,1c0,0.2,0.1,0.4,0.1,0.6c0.1,0.5,0.1,0.5,0.3,0.9c2.5,0,4.1-1.5,5.8-3.2c0.2-0.2,0.3-0.4,0.5-0.5
	c0.2-0.2,0.4-0.4,0.5-0.5c0.9-0.8,0.9-0.8,1.5-1.8c0.2,0,0.4,0,0.6,0c-0.1,1.1-0.7,1.7-1.4,2.5c-0.1,0.1-0.2,0.3-0.3,0.4
	c-0.3,0.4-0.7,0.7-1,1.1c-0.1,0.1-0.3,0.3-0.4,0.5c-1.2,1.2-3.1,3-4.9,3.2c-1.3,0-2-0.1-3.1-0.9c-1.2-1.6-1.2-3.1-1-5
	c0.4-2.3,1.7-3.9,3.4-5.4C219.1,32.3,221,32.3,222.5,32.8z M219.3,35.9c-1,1.1-1.6,2.1-2.1,3.6c1.2,0,1.9-0.4,2.8-1.3
	c0.9-1.1,1.3-2.2,1.4-3.6C220.5,34.7,219.9,35.3,219.3,35.9z"/>
</svg>
