<?xml version="1.0" encoding="utf-8"?>
<!-- Generator: Adobe Illustrator 26.0.1, SVG Export Plug-In . SVG Version: 6.00 Build 0)  -->
<svg version="1.1" id="Layer_1" xmlns="http://www.w3.org/2000/svg" xmlns:xlink="http://www.w3.org/1999/xlink" x="0px" y="0px"
	 viewBox="0 0 86.4 94.5" style="enable-background:new 0 0 86.4 94.5;" xml:space="preserve">
<style type="text/css">
	.st0{fill:#EC3237;}
	.st1{fill:#FDFBFB;}
</style>
<path class="st0" d="M43,5.1c0.6,0.3,1.1,0.6,1.6,1.1c0.1,0.1,0.3,0.3,0.4,0.4c0.1,0.1,0.3,0.3,0.4,0.4c0.1,0.1,0.3,0.3,0.4,0.4
	c0.8,0.8,1.6,1.6,2.3,2.5c0.6,0.7,1.3,1.3,1.9,2c0.4,0.4,0.8,0.9,1.2,1.3c0.6,0.7,1.2,1.4,1.9,2c0.8,0.8,1.5,1.6,2.2,2.4
	c0.5,0.5,0.9,1,1.4,1.5c0.6,0.6,1.2,1.2,1.8,1.9c0.6,0.7,1.2,1.4,1.9,2c0.8,0.8,1.5,1.6,2.2,2.4c0.6,0.7,1.3,1.3,2,2
	c0.6,0.6,1.1,1.2,1.6,1.8c0.5,0.5,0.9,1,1.4,1.5c0.6,0.6,1.2,1.2,1.8,1.9c0.6,0.7,1.2,1.4,1.9,2c0.8,0.8,1.5,1.6,2.2,2.4
	c0.5,0.5,0.9,1,1.4,1.5c0.6,0.6,1.2,1.2,1.8,1.9c0.7,0.8,1.4,1.6,2.2,2.3c0.7,0.7,1.3,1.4,2,2.1c0.5,0.6,1.1,1.1,1.7,1.7
	c0.3,0.4,0.3,0.4,0.3,0.8c-0.3,0.6-0.8,1-1.3,1.5c-0.7,0.7-1.4,1.3-2,2.1c-0.7,0.9-1.5,1.6-2.3,2.4c-0.4,0.4-0.8,0.9-1.2,1.3
	c-0.7,0.8-1.4,1.6-2.2,2.3c-0.7,0.7-1.3,1.4-1.9,2.1c-0.6,0.7-1.3,1.4-2,2c-0.4,0.4-0.8,0.9-1.2,1.3c-0.7,0.8-1.4,1.6-2.2,2.3
	c-0.7,0.7-1.3,1.4-1.9,2.1s-1.3,1.4-2,2c-0.4,0.4-0.8,0.9-1.2,1.3c-0.7,0.8-1.4,1.6-2.2,2.3c-0.7,0.7-1.3,1.4-1.9,2.1
	c-0.6,0.7-1.3,1.4-2,2c-0.4,0.4-0.8,0.9-1.2,1.3c-0.7,0.8-1.4,1.6-2.2,2.3c-0.7,0.7-1.3,1.4-1.9,2.1c-0.6,0.7-1.3,1.3-2,2
	c-0.6,0.6-1.1,1.2-1.6,1.8c-0.6,0.7-1.3,1.4-2,2.1c-0.5,0.5-0.5,0.5-0.9,1.1c-0.8-0.1-1.1-0.4-1.6-1c-0.1-0.2-0.3-0.3-0.4-0.5
	c-0.5-0.6-1-1.1-1.5-1.7s-1-1.1-1.6-1.6c-0.8-0.8-1.5-1.6-2.2-2.4c-0.5-0.5-0.9-1-1.4-1.5c-0.6-0.6-1.2-1.2-1.8-1.9
	c-0.6-0.7-1.2-1.4-1.9-2c-0.8-0.8-1.5-1.6-2.2-2.4c-0.6-0.7-1.3-1.3-2-2c-0.6-0.6-1.1-1.2-1.6-1.8c-0.5-0.5-0.9-1-1.4-1.5
	c-0.6-0.6-1.2-1.2-1.8-1.9c-0.6-0.7-1.2-1.4-1.9-2c-0.8-0.8-1.5-1.6-2.2-2.4c-0.5-0.5-0.9-1-1.4-1.5c-0.6-0.6-1.2-1.2-1.8-1.9
	s-1.2-1.4-1.9-2c-0.8-0.8-1.5-1.6-2.2-2.4c-0.5-0.5-0.9-1-1.4-1.5c-0.7-0.7-1.4-1.5-2.1-2.3s-1.4-1.5-2.2-2.2
	C4.5,48,4,47.4,3.5,46.6c0.5-0.6,1-1.1,1.6-1.7c0.1-0.2,0.3-0.3,0.4-0.5c0.9-0.9,1.7-1.8,2.6-2.7c0.4-0.4,0.7-0.8,1.1-1.2
	c0.6-0.7,1.2-1.3,1.8-1.9c0.6-0.6,1.2-1.2,1.8-1.9c0.7-0.8,1.4-1.6,2.2-2.3c0.7-0.7,1.3-1.4,1.9-2.1c0.6-0.7,1.3-1.4,2-2
	c0.4-0.4,0.8-0.9,1.2-1.3c0.7-0.8,1.4-1.6,2.2-2.3c0.7-0.7,1.3-1.4,1.9-2.1s1.3-1.4,2-2c0.4-0.4,0.8-0.9,1.2-1.3
	c0.7-0.8,1.4-1.6,2.2-2.3c0.7-0.7,1.3-1.4,1.9-2.1s1.3-1.4,2-2c0.4-0.4,0.8-0.9,1.2-1.3c0.7-0.8,1.4-1.6,2.2-2.3
	c0.7-0.7,1.3-1.4,1.9-2.1c0.6-0.7,1.3-1.3,2-2s1.3-1.4,2-2.2C42.9,5.2,43,5.2,43,5.1z"/>
<path class="st1" d="M64,33.2c0.1,0.1,0.3,0.2,0.4,0.3c1.6,1.2,2.8,3.2,3.3,5.2c0.2,3.4-0.5,5.7-2.6,8.4c-0.1,0.1-0.2,0.2-0.3,0.3
	c-0.1,0-0.3,0-0.4,0c0,0.1-0.1,0.2-0.1,0.4c-2.2,3.7-9.7,5.3-13.4,6.3c-2.9,0.7-5.7,1.2-8.6,1.7c0,0.2,0,0.5-0.1,0.7
	c-0.1,0.9-0.2,1.8-0.2,2.7c0,0.4-0.1,0.8-0.1,1.2c-0.2,2-0.4,4-0.8,6c0,0.1-0.1,0.3-0.1,0.4c-0.2,1.1-0.7,2-1.2,2.9
	c-0.3,0-0.6,0-0.8,0c-0.5-0.7-0.8-1.4-1-2.3c-0.1-0.2-0.1-0.4-0.2-0.6c-0.3-1.5-0.4-2.9-0.4-4.4c0-0.2,0-0.4,0-0.6
	c0-0.6,0-1.2,0-1.7c0-0.4,0-0.8,0-1.2c0-1,0-1.9,0-2.9c-0.2,0-0.2,0-0.4,0.1c-1.9,0.4-3.7,0.5-5.6,0.7c-0.6,0.1-1.1,0.1-1.7,0.2
	c-8.7,1-8.7,1-10.8,0.1c0-0.5,0-0.5,0.2-1c1.2-0.7,2.5-1,3.8-1.3c0.2,0,0.4-0.1,0.6-0.1c2.3-0.4,4.7-0.6,7-0.8
	c1.7-0.2,3.3-0.4,5-0.6c0.2,0,0.2,0,0.5-0.1c0.4-0.1,0.8-0.2,1.2-0.2c0.3-0.6,0.3-1.3,0.3-2c0-0.3,0.1-0.7,0.1-1
	c0-0.5,0.1-1,0.1-1.5c0.1-1.8,0.3-3.6,0.6-5.4c0-0.2,0-0.2,0.1-0.4c0.2-0.9,0.4-1.9,1.1-2.6C41,40,41,40,41.8,40.4
	c1.7,1.8,1.4,4.3,1.3,6.6c-0.1,1.8-0.5,3.5-0.9,5.2c9.5-1.7,9.5-1.7,18.1-6c0.4-0.3,0.4-0.3,0.8-0.5c0.5-0.3,0.6-0.5,0.8-1
	c0.2-0.2,0.2-0.2,0.4-0.5c0.9-1.3,1.3-2.8,1.1-4.4c-0.5-1.7-1.9-2.8-3.4-3.7c-4-2.1-9-3-13.5-3c-0.2,0-0.4,0-0.5,0
	c-0.4,0-0.8,0-1.1,0c-0.6,0-1.1,0-1.7,0c-3.1,0-6,0.3-9.1,1C33.8,34,33.8,34,33.5,34c-2.7,0.6-5.3,1.6-8,2.5
	c-0.4,0.2-0.9,0.3-1.3,0.5s-0.8,0.3-1.2,0.5c-2,0.7-2,0.7-3.1,0.7c-0.2,0-0.4,0-0.5,0c-0.5-0.1-0.5-0.1-0.9-0.5
	c0-1.1,0.5-1.7,1.2-2.5c4.5-4.1,10.8-6.1,16.7-7.1c0.5-0.1,0.9-0.2,1.4-0.2C46,26.6,57.3,27.9,64,33.2z"/>
</svg>
